<?xml version="1.0" standalone="no"?>
<!DOCTYPE svg PUBLIC "-//W3C//DTD SVG 20010904//EN"
 "http://www.w3.org/TR/2001/REC-SVG-20010904/DTD/svg10.dtd">
<svg version="1.0" xmlns="http://www.w3.org/2000/svg"
 width="260.000000pt" height="260.000000pt" viewBox="0 0 260.000000 260.000000"
 preserveAspectRatio="xMidYMid meet">
<metadata>
Created by potrace 1.11, written by Peter Selinger 2001-2013
</metadata>
<g transform="translate(0.000000,260.000000) scale(0.100000,-0.100000)"
fill="#000000" stroke="none">
<path d="M1225 2240 c-76 -31 -114 -159 -74 -245 38 -81 119 -93 182 -27 34
36 47 72 47 133 0 105 -75 173 -155 139z"/>
<path d="M1394 1942 c-63 -46 -88 -127 -65 -208 18 -64 -53 -160 -156 -209
-73 -34 -229 -72 -313 -75 l-35 -1 27 -14 c15 -8 44 -18 65 -21 21 -3 56 -9
78 -13 61 -11 190 -4 253 14 156 46 246 133 276 270 l12 50 94 -1 c214 -2 339
-32 396 -96 60 -65 43 -172 -46 -304 -16 -25 -30 -47 -30 -50 0 -12 121 89
162 135 64 71 82 113 83 191 0 57 -4 71 -32 111 -43 62 -95 102 -185 143 -67
31 -193 67 -278 80 -19 4 -48 8 -65 11 -16 3 -68 8 -115 11 -83 6 -86 5 -126
-24z"/>
<path d="M516 1616 c-46 -71 9 -206 109 -272 l26 -17 -63 -31 c-262 -128 -472
-401 -564 -736 -30 -108 -30 -141 0 -177 l24 -28 1109 -2 c1097 -3 1108 -3
1083 17 -89 69 -290 146 -481 184 -106 21 -135 26 -186 31 -32 3 -69 8 -83 11
-148 25 -807 25 -971 -1 -13 -2 -56 -6 -94 -9 -39 -4 -81 -8 -95 -10 -92 -15
-122 -17 -116 -8 3 5 8 27 12 48 8 58 59 205 95 276 76 150 209 310 322 387
42 28 54 32 85 26 87 -17 220 -26 227 -15 2 4 -13 16 -33 28 -21 11 -47 29
-59 39 -12 10 -32 26 -45 37 -12 10 -72 67 -133 126 -60 59 -120 111 -131 114
-16 5 -26 0 -38 -18z"/>
<path d="M1568 1373 c-170 -49 -357 -159 -475 -280 -85 -88 -155 -207 -192
-327 -31 -101 -26 -106 28 -30 88 124 207 230 341 301 56 30 181 80 216 87 10
2 37 9 59 14 22 6 57 13 78 15 38 5 38 5 69 -57 178 -353 367 -406 605 -168
87 87 165 195 298 411 15 25 -78 -47 -176 -136 -197 -180 -335 -253 -406 -214
-44 23 -70 69 -128 228 -66 180 -128 210 -317 156z"/>
</g>
</svg>
