<?xml version="1.0" encoding="utf-8"?>
<!-- Generator: Adobe Illustrator 21.0.0, SVG Export Plug-In . SVG Version: 6.00 Build 0)  -->
<svg version="1.1" id="Layer_1" xmlns="http://www.w3.org/2000/svg" xmlns:xlink="http://www.w3.org/1999/xlink" x="0px" y="0px"
	 viewBox="0 0 566.9 81.8" style="enable-background:new 0 0 566.9 81.8;" xml:space="preserve">
<style type="text/css">
	.st0{fill:#F26722;}
</style>
<g>
	<g>
		<g>
			<defs>
				<path id="SVGID_1_" d="M54.8,0.1c2.9,0.5,4.7,4,4.1,7.8c-0.6,3.9-3.5,6.6-6.3,6.2c-2.9-0.5-4.7-4-4.1-7.9
					C49.1,2.4,51.9-0.4,54.8,0.1 M35,34.8c12.2-1.4,20.1-3.9,22.1-11.4c-1.7-4.9-0.4-9.6,4.8-11.4c3.7,0,8.2,0.7,12.7,1.6
					c4.4,0.9,8.7,2.1,12.1,4.1c8.7,5.1,11.9,13.8-3.9,24.3c15.2-19.9-5.6-19.9-17.4-19.9C64.4,35.6,49.4,39.8,35,34.8z M37.4,68.7
					c6-11,17.6-19.8,33.6-21.7c9.8,22,21.6,23.9,40-8.3c-4.4,2.9-8,6.9-12,10.2c-4.9,4-9.9,6.9-12.7,5.7
					c-6.6-2.9-4.4-19.4-14.7-17.9C57.9,39,40.1,49.6,37.4,68.7z M96.7,81.8C81,69.2,41,68.1,9.1,72.8c2.1-14.1,10.7-26.6,20.6-32.5
					c4,1.2,8,1.4,12.1,1.2c-7.3-3.5-11.2-9-16.9-14.3c-2.1-2.1-4,0.4-3.6,3.8c0.4,3.1,2.8,6.9,6.7,8.8C13,45.5,3.6,60.7,0.2,75.8
					c-1.1,5,2.1,6,5,6C35.7,81.8,66.2,81.8,96.7,81.8z"/>
			</defs>
			<use xlink:href="#SVGID_1_"  style="overflow:visible;fill-rule:evenodd;clip-rule:evenodd;fill:#F26722;"/>
			<clipPath id="SVGID_2_">
				<use xlink:href="#SVGID_1_"  style="overflow:visible;"/>
			</clipPath>
		</g>
		<g>
			<path class="st0" d="M140.2,25.7H151l8.8,14.2l8.8-14.2h10.7v36.7h-10.1V41.3l-9.4,14.4h-0.2l-9.3-14.3v21h-10V25.7z"/>
			<path class="st0" d="M198.4,25.4h9.8l15.6,37H213l-2.6-6.6h-14.2l-2.6,6.6h-10.6L198.4,25.4z M207.3,47.9l-4.1-10.4l-4.1,10.4
				H207.3z M205.1,14.2l9.5,2.9l-7.8,5.6h-7.4L205.1,14.2z"/>
			<path class="st0" d="M227.4,25.7h9.5L252,45.1V25.7h10.1v36.7h-8.9l-15.7-20.1v20.1h-10.1V25.7z"/>
			<path class="st0" d="M268.9,25.7H279v36.7h-10.2V25.7z"/>
			<path class="st0" d="M298.5,25.4h9.8l15.6,37H313l-2.6-6.6h-14.2l-2.6,6.6h-10.6L298.5,25.4z M307.4,47.9l-4.1-10.4l-4.1,10.4
				H307.4z"/>
			<path class="st0" d="M342,25.7h29.4v8.9h-19.2v6.2h17.4v8.4h-17.4v13.1H342V25.7z"/>
			<path class="st0" d="M376.3,25.7h10.2v36.7h-10.2V25.7z"/>
			<path class="st0" d="M402.1,34.6h-11v-8.9h32.1v8.9h-11v27.8h-10.2V34.6z"/>
			<path class="st0" d="M427.8,25.7h9.5l15.1,19.4V25.7h10.1v36.7h-8.9l-15.7-20.1v20.1h-10.1V25.7z"/>
			<path class="st0" d="M469,25.7h29.5v8.6H479v5.6h17.6v8H479v5.8h19.7v8.7H469V25.7z"/>
			<path class="st0" d="M501.2,57l5.7-6.8c3.7,2.9,7.7,4.4,11.9,4.4c2.8,0,4.2-0.9,4.2-2.5V52c0-1.6-1.2-2.4-6.2-3.6
				c-7.8-1.8-13.8-4-13.8-11.5v-0.1c0-6.8,5.4-11.7,14.2-11.7c6.2,0,11.1,1.7,15.1,4.9l-5.1,7.2c-3.4-2.4-7-3.6-10.3-3.6
				c-2.5,0-3.7,1-3.7,2.4V36c0,1.7,1.3,2.4,6.4,3.6c8.4,1.8,13.6,4.6,13.6,11.4v0.1c0,7.5-5.9,12-14.8,12
				C511.9,63,505.8,61,501.2,57z"/>
			<path class="st0" d="M534.9,57l5.7-6.8c3.7,2.9,7.7,4.4,11.9,4.4c2.8,0,4.2-0.9,4.2-2.5V52c0-1.6-1.2-2.4-6.2-3.6
				c-7.8-1.8-13.8-4-13.8-11.5v-0.1c0-6.8,5.4-11.7,14.2-11.7c6.2,0,11.1,1.7,15.1,4.9l-5.1,7.2c-3.4-2.4-7-3.6-10.3-3.6
				c-2.5,0-3.7,1-3.7,2.4V36c0,1.7,1.3,2.4,6.4,3.6c8.4,1.8,13.6,4.6,13.6,11.4v0.1c0,7.5-5.9,12-14.8,12
				C545.6,63,539.5,61,534.9,57z"/>
		</g>
	</g>
</g>
<g>
</g>
<g>
</g>
<g>
</g>
<g>
</g>
<g>
</g>
<g>
</g>
</svg>
